<svg xmlns="http://www.w3.org/2000/svg" viewBox="0 0 200 45" width="100%" height="100%">
  <defs>
    <filter id="tape-shadow-sage" x="-5%" y="-10%" width="110%" height="130%">
      <feDropShadow dx="0" dy="2" stdDeviation="1.5" flood-color="#000" flood-opacity="0.12"/>
    </filter>
  </defs>
  <g filter="url(#tape-shadow-sage)">
    <path d="M5,4 L195,4 L192,13 L197,21 L193,29 L196,37 L193,42 L5,42 L8,33 L4,25 L7,17 L4,9 Z" fill="#bbf7d0" fill-opacity="0.80" stroke="#86efac" stroke-width="0.75" stroke-opacity="0.5"/>
    <!-- botanical leaf pattern on tape -->
    <path d="M30,22 Q35,16 40,22 Q35,28 30,22 M70,22 Q75,16 80,22 Q75,28 70,22 M110,22 Q115,16 120,22 Q115,28 110,22 M150,22 Q155,16 160,22 Q155,28 150,22" fill="#15803d" opacity="0.3"/>
  </g>
</svg>
